<mxfile host="app.diagrams.net" modified="2021-07-14T10:59:23.577Z" agent="5.0 (Macintosh; Intel Mac OS X 10_15_7) AppleWebKit/537.36 (KHTML, like Gecko) Chrome/91.0.4472.114 Safari/537.36" etag="3iVdn5moOTAlI0ECU-zj" version="14.8.6" type="github">
  <diagram name="Page-1" id="e7e014a7-5840-1c2e-5031-d8a46d1fe8dd">
    <mxGraphModel dx="1426" dy="794" grid="1" gridSize="10" guides="1" tooltips="1" connect="1" arrows="1" fold="1" page="1" pageScale="1" pageWidth="1169" pageHeight="826" background="none" math="0" shadow="0">
      <root>
        <mxCell id="0" />
        <mxCell id="1" parent="0" />
        <mxCell id="EgMxp-aqcUC4FiaJbhj4-52" value="用户X 标签" style="swimlane;fontStyle=1;childLayout=stackLayout;horizontal=1;startSize=26;fillColor=none;horizontalStack=0;resizeParent=1;resizeParentMax=0;resizeLast=0;collapsible=1;marginBottom=0;" vertex="1" parent="1">
          <mxGeometry x="350" y="260" width="140" height="156" as="geometry" />
        </mxCell>
        <mxCell id="EgMxp-aqcUC4FiaJbhj4-53" value="+ Tag A" style="text;strokeColor=none;fillColor=none;align=left;verticalAlign=top;spacingLeft=4;spacingRight=4;overflow=hidden;rotatable=0;points=[[0,0.5],[1,0.5]];portConstraint=eastwest;" vertex="1" parent="EgMxp-aqcUC4FiaJbhj4-52">
          <mxGeometry y="26" width="140" height="26" as="geometry" />
        </mxCell>
        <mxCell id="EgMxp-aqcUC4FiaJbhj4-54" value="+ Tag B" style="text;strokeColor=none;fillColor=none;align=left;verticalAlign=top;spacingLeft=4;spacingRight=4;overflow=hidden;rotatable=0;points=[[0,0.5],[1,0.5]];portConstraint=eastwest;" vertex="1" parent="EgMxp-aqcUC4FiaJbhj4-52">
          <mxGeometry y="52" width="140" height="26" as="geometry" />
        </mxCell>
        <mxCell id="EgMxp-aqcUC4FiaJbhj4-116" value="+ Tag VIP" style="text;strokeColor=none;fillColor=none;align=left;verticalAlign=top;spacingLeft=4;spacingRight=4;overflow=hidden;rotatable=0;points=[[0,0.5],[1,0.5]];portConstraint=eastwest;fontColor=#FF3333;" vertex="1" parent="EgMxp-aqcUC4FiaJbhj4-52">
          <mxGeometry y="78" width="140" height="26" as="geometry" />
        </mxCell>
        <mxCell id="EgMxp-aqcUC4FiaJbhj4-117" value="+ Tag Auth" style="text;strokeColor=none;fillColor=none;align=left;verticalAlign=top;spacingLeft=4;spacingRight=4;overflow=hidden;rotatable=0;points=[[0,0.5],[1,0.5]];portConstraint=eastwest;fontColor=#FF3333;" vertex="1" parent="EgMxp-aqcUC4FiaJbhj4-52">
          <mxGeometry y="104" width="140" height="26" as="geometry" />
        </mxCell>
        <mxCell id="EgMxp-aqcUC4FiaJbhj4-118" value="+ Tag Other" style="text;strokeColor=none;fillColor=none;align=left;verticalAlign=top;spacingLeft=4;spacingRight=4;overflow=hidden;rotatable=0;points=[[0,0.5],[1,0.5]];portConstraint=eastwest;fontColor=#FF3333;" vertex="1" parent="EgMxp-aqcUC4FiaJbhj4-52">
          <mxGeometry y="130" width="140" height="26" as="geometry" />
        </mxCell>
        <mxCell id="EgMxp-aqcUC4FiaJbhj4-56" value="Tag B" style="swimlane;fontStyle=1;childLayout=stackLayout;horizontal=1;startSize=26;fillColor=none;horizontalStack=0;resizeParent=1;resizeParentMax=0;resizeLast=0;collapsible=1;marginBottom=0;" vertex="1" parent="1">
          <mxGeometry x="870" y="309" width="140" height="104" as="geometry" />
        </mxCell>
        <mxCell id="EgMxp-aqcUC4FiaJbhj4-58" value="+ User B ID" style="text;strokeColor=none;fillColor=none;align=left;verticalAlign=top;spacingLeft=4;spacingRight=4;overflow=hidden;rotatable=0;points=[[0,0.5],[1,0.5]];portConstraint=eastwest;" vertex="1" parent="EgMxp-aqcUC4FiaJbhj4-56">
          <mxGeometry y="26" width="140" height="26" as="geometry" />
        </mxCell>
        <mxCell id="EgMxp-aqcUC4FiaJbhj4-57" value="+ User A ID" style="text;strokeColor=none;fillColor=none;align=left;verticalAlign=top;spacingLeft=4;spacingRight=4;overflow=hidden;rotatable=0;points=[[0,0.5],[1,0.5]];portConstraint=eastwest;" vertex="1" parent="EgMxp-aqcUC4FiaJbhj4-56">
          <mxGeometry y="52" width="140" height="26" as="geometry" />
        </mxCell>
        <mxCell id="EgMxp-aqcUC4FiaJbhj4-59" value="+ User X ID" style="text;strokeColor=none;fillColor=none;align=left;verticalAlign=top;spacingLeft=4;spacingRight=4;overflow=hidden;rotatable=0;points=[[0,0.5],[1,0.5]];portConstraint=eastwest;fontColor=#FF3333;" vertex="1" parent="EgMxp-aqcUC4FiaJbhj4-56">
          <mxGeometry y="78" width="140" height="26" as="geometry" />
        </mxCell>
        <mxCell id="EgMxp-aqcUC4FiaJbhj4-61" style="edgeStyle=orthogonalEdgeStyle;rounded=0;orthogonalLoop=1;jettySize=auto;html=1;exitX=0;exitY=0.5;exitDx=0;exitDy=0;entryX=0.5;entryY=0;entryDx=0;entryDy=0;strokeColor=#FF3333;curved=1;" edge="1" parent="1" source="EgMxp-aqcUC4FiaJbhj4-60" target="EgMxp-aqcUC4FiaJbhj4-52">
          <mxGeometry relative="1" as="geometry" />
        </mxCell>
        <mxCell id="EgMxp-aqcUC4FiaJbhj4-85" style="edgeStyle=orthogonalEdgeStyle;curved=1;rounded=0;orthogonalLoop=1;jettySize=auto;html=1;exitX=1;exitY=0.5;exitDx=0;exitDy=0;entryX=0;entryY=0.5;entryDx=0;entryDy=0;strokeColor=#FF3333;startArrow=none;" edge="1" parent="1" source="EgMxp-aqcUC4FiaJbhj4-60" target="EgMxp-aqcUC4FiaJbhj4-84">
          <mxGeometry relative="1" as="geometry">
            <mxPoint x="835" y="200" as="sourcePoint" />
            <Array as="points">
              <mxPoint x="830" y="185" />
              <mxPoint x="830" y="239" />
            </Array>
          </mxGeometry>
        </mxCell>
        <mxCell id="EgMxp-aqcUC4FiaJbhj4-89" style="edgeStyle=orthogonalEdgeStyle;curved=1;rounded=0;orthogonalLoop=1;jettySize=auto;html=1;exitX=1;exitY=0.5;exitDx=0;exitDy=0;entryX=0;entryY=0.5;entryDx=0;entryDy=0;fontColor=#FF3333;strokeColor=#FF3333;" edge="1" parent="1" source="EgMxp-aqcUC4FiaJbhj4-60" target="EgMxp-aqcUC4FiaJbhj4-57">
          <mxGeometry relative="1" as="geometry">
            <Array as="points">
              <mxPoint x="810" y="185" />
              <mxPoint x="810" y="374" />
            </Array>
          </mxGeometry>
        </mxCell>
        <mxCell id="EgMxp-aqcUC4FiaJbhj4-60" value="注册成功" style="ellipse;whiteSpace=wrap;html=1;" vertex="1" parent="1">
          <mxGeometry x="630" y="170" width="80" height="30" as="geometry" />
        </mxCell>
        <mxCell id="EgMxp-aqcUC4FiaJbhj4-73" style="edgeStyle=orthogonalEdgeStyle;curved=1;rounded=0;orthogonalLoop=1;jettySize=auto;html=1;exitX=0;exitY=0.5;exitDx=0;exitDy=0;entryX=0.25;entryY=0.5;entryDx=0;entryDy=0;entryPerimeter=0;strokeColor=#FF3333;" edge="1" parent="1" source="EgMxp-aqcUC4FiaJbhj4-62" target="EgMxp-aqcUC4FiaJbhj4-70">
          <mxGeometry relative="1" as="geometry" />
        </mxCell>
        <mxCell id="EgMxp-aqcUC4FiaJbhj4-112" style="edgeStyle=orthogonalEdgeStyle;curved=1;rounded=0;orthogonalLoop=1;jettySize=auto;html=1;exitX=1;exitY=0.5;exitDx=0;exitDy=0;fontColor=#FF3333;strokeColor=#FF3333;" edge="1" parent="1" source="EgMxp-aqcUC4FiaJbhj4-62" target="EgMxp-aqcUC4FiaJbhj4-99">
          <mxGeometry relative="1" as="geometry">
            <Array as="points">
              <mxPoint x="810" y="296" />
              <mxPoint x="810" y="440" />
              <mxPoint x="940" y="440" />
            </Array>
          </mxGeometry>
        </mxCell>
        <mxCell id="EgMxp-aqcUC4FiaJbhj4-62" value="VIP" style="ellipse;whiteSpace=wrap;html=1;" vertex="1" parent="1">
          <mxGeometry x="630" y="281" width="80" height="30" as="geometry" />
        </mxCell>
        <mxCell id="EgMxp-aqcUC4FiaJbhj4-63" value="初始化标签" style="text;html=1;strokeColor=none;fillColor=none;align=center;verticalAlign=middle;whiteSpace=wrap;rounded=0;" vertex="1" parent="1">
          <mxGeometry x="470" y="140" width="95" height="30" as="geometry" />
        </mxCell>
        <mxCell id="EgMxp-aqcUC4FiaJbhj4-65" value="update" style="text;html=1;strokeColor=none;fillColor=none;align=center;verticalAlign=middle;whiteSpace=wrap;rounded=0;" vertex="1" parent="1">
          <mxGeometry x="510" y="292" width="50" height="20" as="geometry" />
        </mxCell>
        <mxCell id="EgMxp-aqcUC4FiaJbhj4-74" style="edgeStyle=orthogonalEdgeStyle;curved=1;rounded=0;orthogonalLoop=1;jettySize=auto;html=1;exitX=0;exitY=0.5;exitDx=0;exitDy=0;entryX=0.75;entryY=0.5;entryDx=0;entryDy=0;entryPerimeter=0;strokeColor=#FF3333;" edge="1" parent="1" source="EgMxp-aqcUC4FiaJbhj4-66" target="EgMxp-aqcUC4FiaJbhj4-70">
          <mxGeometry relative="1" as="geometry" />
        </mxCell>
        <mxCell id="EgMxp-aqcUC4FiaJbhj4-113" style="edgeStyle=orthogonalEdgeStyle;curved=1;rounded=0;orthogonalLoop=1;jettySize=auto;html=1;exitX=1;exitY=0.5;exitDx=0;exitDy=0;entryX=0.75;entryY=0;entryDx=0;entryDy=0;fontColor=#FF3333;strokeColor=#FF3333;" edge="1" parent="1" source="EgMxp-aqcUC4FiaJbhj4-66" target="EgMxp-aqcUC4FiaJbhj4-95">
          <mxGeometry relative="1" as="geometry" />
        </mxCell>
        <mxCell id="EgMxp-aqcUC4FiaJbhj4-66" value="&lt;span style=&quot;font-weight: 700&quot;&gt;Auth&lt;/span&gt;" style="ellipse;whiteSpace=wrap;html=1;" vertex="1" parent="1">
          <mxGeometry x="630" y="331" width="80" height="33" as="geometry" />
        </mxCell>
        <mxCell id="EgMxp-aqcUC4FiaJbhj4-70" value="" style="shape=line;html=1;strokeWidth=6;strokeColor=#ff0000;direction=south;" vertex="1" parent="1">
          <mxGeometry x="580" y="270" width="10" height="104" as="geometry" />
        </mxCell>
        <mxCell id="EgMxp-aqcUC4FiaJbhj4-71" value="" style="edgeStyle=orthogonalEdgeStyle;html=1;verticalAlign=bottom;endArrow=open;endSize=8;strokeColor=#ff0000;" edge="1" source="EgMxp-aqcUC4FiaJbhj4-70" parent="1">
          <mxGeometry relative="1" as="geometry">
            <mxPoint x="489" y="322" as="targetPoint" />
          </mxGeometry>
        </mxCell>
        <mxCell id="EgMxp-aqcUC4FiaJbhj4-77" style="edgeStyle=orthogonalEdgeStyle;curved=1;rounded=0;orthogonalLoop=1;jettySize=auto;html=1;exitX=0;exitY=0.5;exitDx=0;exitDy=0;strokeColor=#FF3333;" edge="1" parent="1" source="EgMxp-aqcUC4FiaJbhj4-76">
          <mxGeometry relative="1" as="geometry">
            <mxPoint x="585" y="374" as="targetPoint" />
          </mxGeometry>
        </mxCell>
        <mxCell id="EgMxp-aqcUC4FiaJbhj4-106" style="edgeStyle=orthogonalEdgeStyle;curved=1;rounded=0;orthogonalLoop=1;jettySize=auto;html=1;exitX=0.5;exitY=1;exitDx=0;exitDy=0;fontColor=#FF3333;strokeColor=#FF3333;" edge="1" parent="1" source="EgMxp-aqcUC4FiaJbhj4-76" target="EgMxp-aqcUC4FiaJbhj4-91">
          <mxGeometry relative="1" as="geometry" />
        </mxCell>
        <mxCell id="EgMxp-aqcUC4FiaJbhj4-76" value="Other" style="ellipse;whiteSpace=wrap;html=1;" vertex="1" parent="1">
          <mxGeometry x="630" y="383" width="80" height="30" as="geometry" />
        </mxCell>
        <mxCell id="EgMxp-aqcUC4FiaJbhj4-79" style="edgeStyle=orthogonalEdgeStyle;curved=1;rounded=0;orthogonalLoop=1;jettySize=auto;html=1;exitX=0.5;exitY=1;exitDx=0;exitDy=0;strokeColor=#FF3333;" edge="1" parent="1" source="EgMxp-aqcUC4FiaJbhj4-78" target="EgMxp-aqcUC4FiaJbhj4-60">
          <mxGeometry relative="1" as="geometry" />
        </mxCell>
        <mxCell id="EgMxp-aqcUC4FiaJbhj4-78" value="" style="ellipse;html=1;shape=endState;fillColor=#000000;strokeColor=#ff0000;" vertex="1" parent="1">
          <mxGeometry x="655" y="60" width="30" height="30" as="geometry" />
        </mxCell>
        <mxCell id="EgMxp-aqcUC4FiaJbhj4-81" value="Tag A" style="swimlane;fontStyle=1;childLayout=stackLayout;horizontal=1;startSize=26;fillColor=none;horizontalStack=0;resizeParent=1;resizeParentMax=0;resizeLast=0;collapsible=1;marginBottom=0;" vertex="1" parent="1">
          <mxGeometry x="870" y="200" width="140" height="52" as="geometry">
            <mxRectangle x="870" y="200" width="60" height="26" as="alternateBounds" />
          </mxGeometry>
        </mxCell>
        <mxCell id="EgMxp-aqcUC4FiaJbhj4-84" value="+ User X ID" style="text;strokeColor=none;fillColor=none;align=left;verticalAlign=top;spacingLeft=4;spacingRight=4;overflow=hidden;rotatable=0;points=[[0,0.5],[1,0.5]];portConstraint=eastwest;fontColor=#FF3333;" vertex="1" parent="EgMxp-aqcUC4FiaJbhj4-81">
          <mxGeometry y="26" width="140" height="26" as="geometry" />
        </mxCell>
        <mxCell id="EgMxp-aqcUC4FiaJbhj4-86" value="注册用户X" style="text;html=1;strokeColor=none;fillColor=none;align=center;verticalAlign=middle;whiteSpace=wrap;rounded=0;" vertex="1" parent="1">
          <mxGeometry x="590" y="65" width="65" height="20" as="geometry" />
        </mxCell>
        <mxCell id="EgMxp-aqcUC4FiaJbhj4-90" value="update Tag B" style="text;html=1;strokeColor=none;fillColor=none;align=center;verticalAlign=middle;whiteSpace=wrap;rounded=0;" vertex="1" parent="1">
          <mxGeometry x="690" y="220" width="90" height="30" as="geometry" />
        </mxCell>
        <mxCell id="EgMxp-aqcUC4FiaJbhj4-91" value="Tag Other" style="swimlane;fontStyle=1;childLayout=stackLayout;horizontal=1;startSize=26;fillColor=none;horizontalStack=0;resizeParent=1;resizeParentMax=0;resizeLast=0;collapsible=1;marginBottom=0;" vertex="1" parent="1">
          <mxGeometry x="390" y="510" width="140" height="104" as="geometry" />
        </mxCell>
        <mxCell id="EgMxp-aqcUC4FiaJbhj4-92" value="+ User A ID" style="text;strokeColor=none;fillColor=none;align=left;verticalAlign=top;spacingLeft=4;spacingRight=4;overflow=hidden;rotatable=0;points=[[0,0.5],[1,0.5]];portConstraint=eastwest;" vertex="1" parent="EgMxp-aqcUC4FiaJbhj4-91">
          <mxGeometry y="26" width="140" height="26" as="geometry" />
        </mxCell>
        <mxCell id="EgMxp-aqcUC4FiaJbhj4-93" value="+ User B ID" style="text;strokeColor=none;fillColor=none;align=left;verticalAlign=top;spacingLeft=4;spacingRight=4;overflow=hidden;rotatable=0;points=[[0,0.5],[1,0.5]];portConstraint=eastwest;" vertex="1" parent="EgMxp-aqcUC4FiaJbhj4-91">
          <mxGeometry y="52" width="140" height="26" as="geometry" />
        </mxCell>
        <mxCell id="EgMxp-aqcUC4FiaJbhj4-94" value="+ User X ID" style="text;strokeColor=none;fillColor=none;align=left;verticalAlign=top;spacingLeft=4;spacingRight=4;overflow=hidden;rotatable=0;points=[[0,0.5],[1,0.5]];portConstraint=eastwest;fontColor=#FF3333;" vertex="1" parent="EgMxp-aqcUC4FiaJbhj4-91">
          <mxGeometry y="78" width="140" height="26" as="geometry" />
        </mxCell>
        <mxCell id="EgMxp-aqcUC4FiaJbhj4-95" value="Tag Auth" style="swimlane;fontStyle=1;childLayout=stackLayout;horizontal=1;startSize=26;fillColor=none;horizontalStack=0;resizeParent=1;resizeParentMax=0;resizeLast=0;collapsible=1;marginBottom=0;" vertex="1" parent="1">
          <mxGeometry x="655" y="510" width="140" height="104" as="geometry" />
        </mxCell>
        <mxCell id="EgMxp-aqcUC4FiaJbhj4-96" value="+ User A ID" style="text;strokeColor=none;fillColor=none;align=left;verticalAlign=top;spacingLeft=4;spacingRight=4;overflow=hidden;rotatable=0;points=[[0,0.5],[1,0.5]];portConstraint=eastwest;" vertex="1" parent="EgMxp-aqcUC4FiaJbhj4-95">
          <mxGeometry y="26" width="140" height="26" as="geometry" />
        </mxCell>
        <mxCell id="EgMxp-aqcUC4FiaJbhj4-97" value="+ User B ID" style="text;strokeColor=none;fillColor=none;align=left;verticalAlign=top;spacingLeft=4;spacingRight=4;overflow=hidden;rotatable=0;points=[[0,0.5],[1,0.5]];portConstraint=eastwest;" vertex="1" parent="EgMxp-aqcUC4FiaJbhj4-95">
          <mxGeometry y="52" width="140" height="26" as="geometry" />
        </mxCell>
        <mxCell id="EgMxp-aqcUC4FiaJbhj4-98" value="+ User X ID" style="text;strokeColor=none;fillColor=none;align=left;verticalAlign=top;spacingLeft=4;spacingRight=4;overflow=hidden;rotatable=0;points=[[0,0.5],[1,0.5]];portConstraint=eastwest;fontColor=#FF3333;" vertex="1" parent="EgMxp-aqcUC4FiaJbhj4-95">
          <mxGeometry y="78" width="140" height="26" as="geometry" />
        </mxCell>
        <mxCell id="EgMxp-aqcUC4FiaJbhj4-99" value="Tag VIP" style="swimlane;fontStyle=1;childLayout=stackLayout;horizontal=1;startSize=26;fillColor=none;horizontalStack=0;resizeParent=1;resizeParentMax=0;resizeLast=0;collapsible=1;marginBottom=0;" vertex="1" parent="1">
          <mxGeometry x="870" y="510" width="140" height="104" as="geometry" />
        </mxCell>
        <mxCell id="EgMxp-aqcUC4FiaJbhj4-100" value="+ User A ID" style="text;strokeColor=none;fillColor=none;align=left;verticalAlign=top;spacingLeft=4;spacingRight=4;overflow=hidden;rotatable=0;points=[[0,0.5],[1,0.5]];portConstraint=eastwest;" vertex="1" parent="EgMxp-aqcUC4FiaJbhj4-99">
          <mxGeometry y="26" width="140" height="26" as="geometry" />
        </mxCell>
        <mxCell id="EgMxp-aqcUC4FiaJbhj4-101" value="+ User B ID" style="text;strokeColor=none;fillColor=none;align=left;verticalAlign=top;spacingLeft=4;spacingRight=4;overflow=hidden;rotatable=0;points=[[0,0.5],[1,0.5]];portConstraint=eastwest;" vertex="1" parent="EgMxp-aqcUC4FiaJbhj4-99">
          <mxGeometry y="52" width="140" height="26" as="geometry" />
        </mxCell>
        <mxCell id="EgMxp-aqcUC4FiaJbhj4-102" value="+ User X ID" style="text;strokeColor=none;fillColor=none;align=left;verticalAlign=top;spacingLeft=4;spacingRight=4;overflow=hidden;rotatable=0;points=[[0,0.5],[1,0.5]];portConstraint=eastwest;fontColor=#FF3333;" vertex="1" parent="EgMxp-aqcUC4FiaJbhj4-99">
          <mxGeometry y="78" width="140" height="26" as="geometry" />
        </mxCell>
        <mxCell id="EgMxp-aqcUC4FiaJbhj4-111" value="Add Tag A" style="text;html=1;strokeColor=none;fillColor=none;align=center;verticalAlign=middle;whiteSpace=wrap;rounded=0;" vertex="1" parent="1">
          <mxGeometry x="760" y="160" width="90" height="30" as="geometry" />
        </mxCell>
        <mxCell id="EgMxp-aqcUC4FiaJbhj4-119" style="edgeStyle=orthogonalEdgeStyle;curved=1;rounded=0;orthogonalLoop=1;jettySize=auto;html=1;exitX=0.5;exitY=1;exitDx=0;exitDy=0;fontColor=#FF3333;strokeColor=#FF3333;" edge="1" parent="1" source="EgMxp-aqcUC4FiaJbhj4-86" target="EgMxp-aqcUC4FiaJbhj4-86">
          <mxGeometry relative="1" as="geometry" />
        </mxCell>
      </root>
    </mxGraphModel>
  </diagram>
</mxfile>
